<svg xmlns="http://www.w3.org/2000/svg" viewBox="0 0 1200 1200">
    <style>
        .clock-face {
            display: none;
            stroke: none;
        }
        .hours-indicator {
            stroke: #fff;
            stroke-width: 12;
            stroke-linecap: round;
        }
        .minutes-indicator {
            stroke: #333;
            stroke-width: 12;
            stroke-linecap: round;
        }
        .hour-hand {
            stroke: rgba(255, 255, 255, .5);
            stroke-linecap: round;
            stroke-width: 12;
        }
        .minute-hand {
            stroke-linecap: round;
            stroke: rgba(255, 255, 255, .5);
            stroke-width: 4;
        }
        .second-hand-main, .second-hand-counterweight {
            stroke: rgba(180, 0, 0, .8);
        }
        .second-hand-counterweight {
            stroke-width: 4;
        }
        .hours {
            fill: rgba(255, 255, 255, .5);
            stroke: transparent;
            font-family: "HelveticaNeue-Light", "Helvetica Neue Light", "Helvetica Neue", Helvetica, Arial, sans-serif;
            font-size: 5rem;
        }
    </style>
    <rect width="100%" height="100%" fill="#000"/>
    <g transform="translate(600, 600)">
        <circle class="clock-face" r="480"/>
        <text class="hours" x="-20" y="-350" transform="rotate(30)">1</text>
        <text class="hours" x="-20" y="-350" transform="rotate(60)">2</text>
        <text class="hours" x="-20" y="-350" transform="rotate(90)">3</text>
        <text class="hours" x="-20" y="-350" transform="rotate(120)">4</text>
        <text class="hours" x="-20" y="-350" transform="rotate(150)">5</text>
        <text class="hours" x="-20" y="-350" transform="rotate(180)">6</text>
        <text class="hours" x="-20" y="-350" transform="rotate(210)">7</text>
        <text class="hours" x="-20" y="-350" transform="rotate(240)">8</text>
        <text class="hours" x="-20" y="-350" transform="rotate(270)">9</text>
        <text class="hours" x="-45" y="-350" transform="rotate(300)">10</text>
        <text class="hours" x="-45" y="-350" transform="rotate(330)">11</text>
        <text class="hours" x="-45" y="-350" transform="rotate(360)">12</text>
        <line class="minutes-indicator" y1="440" y2="450" transform="rotate(0)"/>
        <line class="minutes-indicator" y1="440" y2="450" transform="rotate(6)"/>
        <line class="minutes-indicator" y1="440" y2="450" transform="rotate(12)"/>
        <line class="minutes-indicator" y1="440" y2="450" transform="rotate(18)"/>
        <line class="minutes-indicator" y1="440" y2="450" transform="rotate(24)"/>
        <line class="minutes-indicator" y1="440" y2="450" transform="rotate(30)"/>
        <line class="minutes-indicator" y1="440" y2="450" transform="rotate(36)"/>
        <line class="minutes-indicator" y1="440" y2="450" transform="rotate(42)"/>
        <line class="minutes-indicator" y1="440" y2="450" transform="rotate(48)"/>
        <line class="minutes-indicator" y1="440" y2="450" transform="rotate(54)"/>
        <line class="minutes-indicator" y1="440" y2="450" transform="rotate(60)"/>
        <line class="minutes-indicator" y1="440" y2="450" transform="rotate(66)"/>
        <line class="minutes-indicator" y1="440" y2="450" transform="rotate(72)"/>
        <line class="minutes-indicator" y1="440" y2="450" transform="rotate(78)"/>
        <line class="minutes-indicator" y1="440" y2="450" transform="rotate(84)"/>
        <line class="minutes-indicator" y1="440" y2="450" transform="rotate(90)"/>
        <line class="minutes-indicator" y1="440" y2="450" transform="rotate(96)"/>
        <line class="minutes-indicator" y1="440" y2="450" transform="rotate(102)"/>
        <line class="minutes-indicator" y1="440" y2="450" transform="rotate(108)"/>
        <line class="minutes-indicator" y1="440" y2="450" transform="rotate(114)"/>
        <line class="minutes-indicator" y1="440" y2="450" transform="rotate(120)"/>
        <line class="minutes-indicator" y1="440" y2="450" transform="rotate(126)"/>
        <line class="minutes-indicator" y1="440" y2="450" transform="rotate(132)"/>
        <line class="minutes-indicator" y1="440" y2="450" transform="rotate(138)"/>
        <line class="minutes-indicator" y1="440" y2="450" transform="rotate(144)"/>
        <line class="minutes-indicator" y1="440" y2="450" transform="rotate(150)"/>
        <line class="minutes-indicator" y1="440" y2="450" transform="rotate(156)"/>
        <line class="minutes-indicator" y1="440" y2="450" transform="rotate(162)"/>
        <line class="minutes-indicator" y1="440" y2="450" transform="rotate(168)"/>
        <line class="minutes-indicator" y1="440" y2="450" transform="rotate(174)"/>
        <line class="minutes-indicator" y1="440" y2="450" transform="rotate(180)"/>
        <line class="minutes-indicator" y1="440" y2="450" transform="rotate(186)"/>
        <line class="minutes-indicator" y1="440" y2="450" transform="rotate(192)"/>
        <line class="minutes-indicator" y1="440" y2="450" transform="rotate(198)"/>
        <line class="minutes-indicator" y1="440" y2="450" transform="rotate(204)"/>
        <line class="minutes-indicator" y1="440" y2="450" transform="rotate(210)"/>
        <line class="minutes-indicator" y1="440" y2="450" transform="rotate(216)"/>
        <line class="minutes-indicator" y1="440" y2="450" transform="rotate(222)"/>
        <line class="minutes-indicator" y1="440" y2="450" transform="rotate(228)"/>
        <line class="minutes-indicator" y1="440" y2="450" transform="rotate(234)"/>
        <line class="minutes-indicator" y1="440" y2="450" transform="rotate(240)"/>
        <line class="minutes-indicator" y1="440" y2="450" transform="rotate(246)"/>
        <line class="minutes-indicator" y1="440" y2="450" transform="rotate(252)"/>
        <line class="minutes-indicator" y1="440" y2="450" transform="rotate(258)"/>
        <line class="minutes-indicator" y1="440" y2="450" transform="rotate(264)"/>
        <line class="minutes-indicator" y1="440" y2="450" transform="rotate(270)"/>
        <line class="minutes-indicator" y1="440" y2="450" transform="rotate(276)"/>
        <line class="minutes-indicator" y1="440" y2="450" transform="rotate(282)"/>
        <line class="minutes-indicator" y1="440" y2="450" transform="rotate(288)"/>
        <line class="minutes-indicator" y1="440" y2="450" transform="rotate(294)"/>
        <line class="minutes-indicator" y1="440" y2="450" transform="rotate(300)"/>
        <line class="minutes-indicator" y1="440" y2="450" transform="rotate(306)"/>
        <line class="minutes-indicator" y1="440" y2="450" transform="rotate(312)"/>
        <line class="minutes-indicator" y1="440" y2="450" transform="rotate(318)"/>
        <line class="minutes-indicator" y1="440" y2="450" transform="rotate(324)"/>
        <line class="minutes-indicator" y1="440" y2="450" transform="rotate(330)"/>
        <line class="minutes-indicator" y1="440" y2="450" transform="rotate(336)"/>
        <line class="minutes-indicator" y1="440" y2="450" transform="rotate(342)"/>
        <line class="minutes-indicator" y1="440" y2="450" transform="rotate(348)"/>
        <line class="minutes-indicator" y1="440" y2="450" transform="rotate(354)"/>
        <line class="hours-indicator" y1="440" y2="450" transform="rotate(0)"/>
        <line class="hours-indicator" y1="440" y2="450" transform="rotate(30)"/>
        <line class="hours-indicator" y1="440" y2="450" transform="rotate(60)"/>
        <line class="hours-indicator" y1="440" y2="450" transform="rotate(90)"/>
        <line class="hours-indicator" y1="440" y2="450" transform="rotate(120)"/>
        <line class="hours-indicator" y1="440" y2="450" transform="rotate(150)"/>
        <line class="hours-indicator" y1="440" y2="450" transform="rotate(180)"/>
        <line class="hours-indicator" y1="440" y2="450" transform="rotate(210)"/>
        <line class="hours-indicator" y1="440" y2="450" transform="rotate(240)"/>
        <line class="hours-indicator" y1="440" y2="450" transform="rotate(270)"/>
        <line class="hours-indicator" y1="440" y2="450" transform="rotate(300)"/>
        <line class="hours-indicator" y1="440" y2="450" transform="rotate(330)"/>
        <line id="hour-hand" class="hour-hand" y1="10" y2="-250"/>
        <line id="minute-hand" class="minute-hand" y1="10" y2="-420"/>
        <g id="second-hand">
            <line class="second-hand-main" y1="100" y2="-380"/>
            <line class="second-hand-counterweight" y1="100" y2="20"/>
        </g>
    </g>
    <script type="text/javascript"><![CDATA[
        function setTime() {
            var now = new Date();
            var seconds = now.getSeconds() / 60;
            var minutes = (now.getMinutes() + seconds) / 60;
            var hours = (now.getHours() + minutes) / 12;

            document.getElementById('hour-hand').setAttribute('transform', 'rotate(' + (hours * 360) + ')');
            document.getElementById('minute-hand').setAttribute('transform', 'rotate(' + (minutes * 360) + ')');
            document.getElementById('second-hand').setAttribute('transform', 'rotate(' + (seconds * 360) + ')');
        }
        setTime();
        setInterval(setTime, 1000);
    ]]></script>
</svg>
